<?xml version="1.0" encoding="UTF-8" standalone="no"?>
<!-- Generator: Adobe Illustrator 27.5.0, SVG Export Plug-In . SVG Version: 6.00 Build 0)  -->

<svg
   version="1.1"
   x="0px"
   y="0px"
   viewBox="0 0 117.912 108.467"
   xml:space="preserve"
   id="svg112"
   sodipodi:docname="favicon.svg"
   width="117.912"
   height="108.467"
   inkscape:version="1.2.2 (732a01da63, 2022-12-09)"
   xmlns:inkscape="http://www.inkscape.org/namespaces/inkscape"
   xmlns:sodipodi="http://sodipodi.sourceforge.net/DTD/sodipodi-0.dtd"
   xmlns="http://www.w3.org/2000/svg"
   xmlns:svg="http://www.w3.org/2000/svg"><defs
   id="defs116" /><sodipodi:namedview
   id="namedview114"
   pagecolor="#505050"
   bordercolor="#eeeeee"
   borderopacity="1"
   inkscape:showpageshadow="0"
   inkscape:pageopacity="0"
   inkscape:pagecheckerboard="0"
   inkscape:deskcolor="#505050"
   showgrid="false"
   inkscape:zoom="4.6895322"
   inkscape:cx="43.607761"
   inkscape:cy="50.111608"
   inkscape:window-width="2560"
   inkscape:window-height="1369"
   inkscape:window-x="-8"
   inkscape:window-y="-8"
   inkscape:window-maximized="1"
   inkscape:current-layer="svg112" />

<g
   id="OBJECTS"
   transform="translate(-112.72,-81.504)">
	
	
	
	
	
	<g
   id="g109">
		
		<g
   id="g107"
   style="fill:#3c5f39;fill-opacity:1">
			<polygon
   points="222.378,185.057 219.122,185.057 171.645,97.866 144.535,147.739 150.124,147.739 171.645,108.148 213.521,185.057 209.234,185.057 171.645,116.046 154.398,147.739 160,147.739 171.645,126.315 184.273,149.508 185.993,152.652 188.658,157.566 188.671,157.566 189.666,159.408 192.343,164.322 193.351,166.165 196.016,171.078 196.348,171.68 206.31,189.971 230.632,189.971 171.682,81.504 135.678,147.739 141.267,147.739 171.682,91.798 "
   id="polygon97"
   style="display:inline;fill:#61afef;fill-opacity:1" />
			<polygon
   points="133.92,177.56 128.32,177.56 124.24,185.06 120.97,185.06 125.05,177.56 119.46,177.56 112.72,189.97 137.04,189.97 143.8,177.56 138.19,177.56 134.12,185.06 129.84,185.06 "
   id="polygon99"
   style="fill:#e06c75;fill-opacity:0.89411765" />
			<polygon
   points="130.96,156.41 183.74,156.41 181.08,151.52 133.62,151.52 "
   id="polygon101"
   style="fill:#dcdfe4;fill-opacity:1" />
			<polygon
   points="126.21,165.15 188.5,165.15 185.84,160.26 128.87,160.26 "
   id="polygon103"
   style="fill:#dcdfe4;fill-opacity:1" />
			<polygon
   points="193.19,173.78 190.54,168.9 124.17,168.9 121.52,173.78 "
   id="polygon105"
   style="fill:#dcdfe4;fill-opacity:1" />
		</g>
	</g>
</g>
</svg>
